<svg width="100%" viewBox="0 0 800 300" xmlns="http://www.w3.org/2000/svg" shape-rendering="crispEdges" image-rendering="pixelated">

<style>
    /* Base animation properties */
    .anim-bounce, .anim-breathe, .anim-pace, .anim-shake, .anim-float, .anim-rain, .anim-snowfall, .anim-lightning, .anim-sway, .anim-blink {
        transform-box: fill-box;
        transform-origin: center;
    }

    /* Weather Animations */
    .anim-float {
        animation: float 20s linear infinite;
    }
    @keyframes float {
        0% { transform: translateX(0px); }
        50% { transform: translateX(30px); }
        100% { transform: translateX(0px); }
    }

    .anim-rain {
        animation: rain 1s linear infinite;
    }
    @keyframes rain {
        0% { transform: translateY(-50px); }
        100% { transform: translateY(50px); }
    }

    .anim-snowfall {
        animation: snowfall 5s linear infinite;
    }
    @keyframes snowfall {
        0% { transform: translate(0px, -50px); }
        50% { transform: translate(20px, 0px); }
        100% { transform: translate(-10px, 50px); }
    }

    .anim-lightning {
        animation: lightning 10s infinite;
    }
    @keyframes lightning {
        0%, 90%, 100% { opacity: 0; }
        92% { opacity: 1; }
        94% { opacity: 0; }
        96% { opacity: 0.8; }
        98% { opacity: 0; }
    }
    
    .anim-sway {
        animation: sway 4s ease-in-out infinite alternate;
    }
    @keyframes sway {
        0% { transform: rotate(-2deg); }
        100% { transform: rotate(2deg); }
    }

    .anim-blink {
        animation: blink 3s infinite;
    }
    @keyframes blink {
        0%, 100% { opacity: 1; }
        50% { opacity: 0.2; }
    }

    /* Pet Behavior Animations */
    .anim-bounce {
        animation: bounce 1s ease-in-out infinite;
    }
    @keyframes bounce {
        0%, 100% { transform: translateY(0); }
        50% { transform: translateY(-8px); }
    }

    .anim-breathe {
        animation: breathe 3s ease-in-out infinite;
    }
    @keyframes breathe {
        0%, 100% { transform: scale(1); }
        50% { transform: scale(1.05); }
    }

    .anim-pace {
        animation: pace 6s linear infinite;
    }
    @keyframes pace {
        0% { transform: translateX(0) scaleX(1); }
        25% { transform: translateX(40px) scaleX(1); }
        26% { transform: translateX(40px) scaleX(-1); } /* flip */
        75% { transform: translateX(-40px) scaleX(-1); }
        76% { transform: translateX(-40px) scaleX(1); } /* flip back */
        100% { transform: translateX(0) scaleX(1); }
    }

    .anim-shake {
        animation: shake 0.2s linear infinite;
    }
    @keyframes shake {
        0% { transform: translateX(-2px); }
        50% { transform: translateX(2px); }
        100% { transform: translateX(-2px); }
    }
</style>

<defs>
<g id="cat_scared" transform="scale(1.5)">
  <!-- Tail puffed and straight up -->
  <path d="M 5 20 L 5 2" fill="none" stroke="#FFA07A" stroke-width="6" stroke-linecap="round"/>
  <path d="M 5 20 L 5 2" fill="none" stroke="#E9967A" stroke-width="3" stroke-linecap="round" stroke-dasharray="1,2"/>
  <!-- Body arched -->
  <path d="M 5 25 Q 15 5 25 25" fill="none" stroke="#FFA07A" stroke-width="12" stroke-linecap="round"/>
  <!-- Legs straight -->
  <rect x="8" y="25" width="3" height="8" rx="1" fill="#FFA07A"/>
  <rect x="20" y="25" width="3" height="8" rx="1" fill="#FFA07A"/>
  <!-- Head lowered -->
  <circle cx="28" cy="22" r="8" fill="#FFA07A"/>
  <!-- Ears flat -->
  <polygon points="23,16 27,18 20,18" fill="#E9967A"/>
  <polygon points="31,16 27,18 34,18" fill="#E9967A"/>
  <!-- Face (Scared) -->
  <circle cx="25" cy="22" r="2.5" fill="#fff"/>
  <circle cx="25" cy="22" r="1" fill="#333"/>
  <circle cx="31" cy="22" r="2.5" fill="#fff"/>
  <circle cx="31" cy="22" r="1" fill="#333"/>
  <path d="M 27 25 Q 28 24 29 25" fill="none" stroke="#333" stroke-width="1.5" stroke-linecap="round"/>
</g>
<g id="forest_tree" transform="scale(3)">
    <rect x="6" y="16" width="4" height="8" fill="#8B4513"/>
    <rect x="2" y="8" width="12" height="8" fill="#228B22"/>
    <rect x="4" y="4" width="8" height="4" fill="#228B22"/>
    <rect x="6" y="0" width="4" height="4" fill="#228B22"/>
</g>
<g id="forest_flower" transform="scale(1.5)">
  <rect x="5" y="5" width="2" height="10" fill="#228b22"/>
  <circle cx="6" cy="3" r="3" fill="#ff69b4"/>
  <circle cx="3" cy="6" r="3" fill="#ff69b4"/>
  <circle cx="9" cy="6" r="3" fill="#ff69b4"/>
  <circle cx="6" cy="9" r="3" fill="#ff69b4"/>
  <circle cx="6" cy="6" r="2" fill="#ffd700"/>
</g>
<g id="forest_tree" transform="scale(3)">
    <rect x="6" y="16" width="4" height="8" fill="#8B4513"/>
    <rect x="2" y="8" width="12" height="8" fill="#228B22"/>
    <rect x="4" y="4" width="8" height="4" fill="#228B22"/>
    <rect x="6" y="0" width="4" height="4" fill="#228B22"/>
</g>
<g id="weather_cloud" transform="scale(2)">
    <rect x="4" y="4" width="16" height="8" fill="#ffffff" opacity="0.8"/>
    <rect x="8" y="0" width="8" height="4" fill="#ffffff" opacity="0.8"/>
    <rect x="0" y="6" width="24" height="6" fill="#ffffff" opacity="0.8"/>
</g>
<g id="weather_storm" transform="scale(1)">
  <rect x="0" y="0" width="800" height="300" fill="#000000" opacity="0.4" />
  
  <!-- Intense heavy rain angled -->
  <line x1="50" y1="-50" x2="10" y2="50" stroke="#88aadd" stroke-width="3" opacity="0.8"/>
  <line x1="150" y1="20" x2="110" y2="120" stroke="#88aadd" stroke-width="2" opacity="0.7"/>
  <line x1="250" y1="-20" x2="210" y2="80" stroke="#88aadd" stroke-width="3" opacity="0.8"/>
  <line x1="350" y1="50" x2="310" y2="150" stroke="#88aadd" stroke-width="2" opacity="0.6"/>
  <line x1="450" y1="-80" x2="410" y2="20" stroke="#88aadd" stroke-width="3" opacity="0.9"/>
  <line x1="550" y1="10" x2="510" y2="110" stroke="#88aadd" stroke-width="2" opacity="0.7"/>
  <line x1="650" y1="-40" x2="610" y2="60" stroke="#88aadd" stroke-width="3" opacity="0.8"/>
  <line x1="750" y1="60" x2="710" y2="160" stroke="#88aadd" stroke-width="2" opacity="0.6"/>
  
  <line x1="100" y1="80" x2="60" y2="180" stroke="#88aadd" stroke-width="2" opacity="0.7"/>
  <line x1="200" y1="-10" x2="160" y2="90" stroke="#88aadd" stroke-width="3" opacity="0.8"/>
  <line x1="300" y1="100" x2="260" y2="200" stroke="#88aadd" stroke-width="2" opacity="0.6"/>
  <line x1="400" y1="30" x2="360" y2="130" stroke="#88aadd" stroke-width="3" opacity="0.8"/>
  <line x1="500" y1="120" x2="460" y2="220" stroke="#88aadd" stroke-width="2" opacity="0.7"/>
  <line x1="600" y1="-30" x2="560" y2="70" stroke="#88aadd" stroke-width="3" opacity="0.9"/>
  <line x1="700" y1="90" x2="660" y2="190" stroke="#88aadd" stroke-width="2" opacity="0.6"/>
  <line x1="800" y1="10" x2="760" y2="110" stroke="#88aadd" stroke-width="3" opacity="0.8"/>
  
  <line x1="120" y1="0" x2="80" y2="100" stroke="#88aadd" stroke-width="1.5" opacity="0.5"/>
  <line x1="320" y1="20" x2="280" y2="120" stroke="#88aadd" stroke-width="1.5" opacity="0.5"/>
  <line x1="520" y1="40" x2="480" y2="140" stroke="#88aadd" stroke-width="1.5" opacity="0.5"/>
  <line x1="720" y1="10" x2="680" y2="110" stroke="#88aadd" stroke-width="1.5" opacity="0.5"/>
</g>
<g id="gifts_fish" transform="scale(2)">
  <!-- Fish body -->
  <ellipse cx="15" cy="10" rx="8" ry="4" fill="#1e90ff"/>
  <!-- Fish tail -->
  <polygon points="6,10 0,5 0,15" fill="#1e90ff"/>
  <!-- Fish eye -->
  <circle cx="20" cy="9" r="1" fill="#000000"/>
  <!-- Fish fin -->
  <path d="M 12 6 Q 15 2 18 6" fill="none" stroke="#00bfff" stroke-width="1"/>
</g>
</defs>
<rect id="sky" x="0" y="0" width="800" height="300" fill="#2F4F4F" />
<rect id="ground" x="0" y="240" width="800" height="60" fill="#2a4a2a" />
<g transform="translate(80, 168)"><g class="anim-sway"><use href="#forest_tree" /></g></g>
<g transform="translate(350, 168)"><g class="anim-sway"><use href="#forest_tree" /></g></g>
<g transform="translate(650, 168)"><g class="anim-sway"><use href="#forest_tree" /></g></g>
<g transform="translate(120, 220)"><g class="anim-breathe"><use href="#forest_flower" /></g></g>
<g transform="translate(550, 168)"><g class="anim-sway"><use href="#forest_tree" /></g></g>
<g transform="translate(100, 20)"><g class="anim-float"><use href="#weather_cloud" /></g></g>
<g transform="translate(400, 40)"><g class="anim-float"><use href="#weather_cloud" /></g></g>
<g transform="translate(600, 10)"><g class="anim-float"><use href="#weather_cloud" /></g></g>
<g transform="translate(0, 0)"><g class="anim-rain"><use href="#weather_storm" /></g></g>
<rect x="0" y="0" width="800" height="300" fill="#ffffff" class="anim-lightning" pointer-events="none" />
<g transform="translate(430, 220)"><g class="anim-float"><use href="#gifts_fish" /></g></g>
<g transform="translate(400, 210)"><g class="anim-shake"><use href="#cat_scared" /></g></g>
<g id="ui" transform="translate(10, 10)">
<rect x="0" y="0" width="780" height="90" fill="#000000" opacity="0.6" rx="5" />
<text x="10" y="20" font-family="sans-serif" font-size="14" fill="#ffffff" font-weight="bold">Status</text>
<text x="10" y="40" font-family="sans-serif" font-size="12" fill="#ffffff">Mood: Sad</text>
<text x="10" y="55" font-family="sans-serif" font-size="12" fill="#ffffff">Friendship: 70</text>
<text x="10" y="70" font-family="sans-serif" font-size="12" fill="#ffffff">Energy: 100</text>
<text x="10" y="85" font-family="sans-serif" font-size="12" fill="#ffffff">Hunger: 0</text>
<text x="200" y="20" font-family="sans-serif" font-size="14" fill="#ffffff" font-weight="bold">Top Friends</text>
<text x="200" y="40" font-family="sans-serif" font-size="12" fill="#ffffff">1. armaanjain-byte (46)</text>
<text x="450" y="20" font-family="sans-serif" font-size="14" fill="#ffffff" font-weight="bold">Recent Activity</text>
<text x="450" y="40" font-family="sans-serif" font-size="12" fill="#ffffff">Gift: Fish (From: armaanjain-byte)</text>
<text x="450" y="55" font-family="sans-serif" font-size="12" fill="#ffd700">armaanjain-byte changed weather to storm</text>
<text x="10" y="280" font-family="monospace" font-size="10" fill="#ff0000">DEBUG - Friendship: 70 | Last Gift: fish | Gifted By: armaanjain-byte | Recent Action: gift_fish</text>
</g>
</svg>