<svg width="100%" viewBox="0 0 800 300" xmlns="http://www.w3.org/2000/svg" xmlns:inkscape="http://www.inkscape.org/namespaces/inkscape" xmlns:sodipodi="http://sodipodi.sourceforge.net/DTD/sodipodi-0.dtd" shape-rendering="crispEdges" image-rendering="pixelated">

<style>
    /* Base animation properties */
    .anim-bounce, .anim-breathe, .anim-pace, .anim-shake, .anim-float, .anim-rain, .anim-snowfall, .anim-lightning, .anim-sway, .anim-blink {
        transform-box: fill-box;
        transform-origin: center;
    }

    /* Weather Animations */
    .anim-float {
        animation: float 20s linear infinite;
    }
    @keyframes float {
        0% { transform: translateX(0px); }
        50% { transform: translateX(30px); }
        100% { transform: translateX(0px); }
    }

    .anim-rain {
        animation: rain 1s linear infinite;
    }
    @keyframes rain {
        0% { transform: translateY(-50px); }
        100% { transform: translateY(50px); }
    }

    .anim-snowfall {
        animation: snowfall 5s linear infinite;
    }
    @keyframes snowfall {
        0% { transform: translate(0px, -50px); }
        50% { transform: translate(20px, 0px); }
        100% { transform: translate(-10px, 50px); }
    }

    .anim-lightning {
        animation: lightning 10s infinite;
    }
    @keyframes lightning {
        0%, 90%, 100% { opacity: 0; }
        92% { opacity: 1; }
        94% { opacity: 0; }
        96% { opacity: 0.8; }
        98% { opacity: 0; }
    }
    
    .anim-sway {
        animation: sway 4s ease-in-out infinite alternate;
    }
    @keyframes sway {
        0% { transform: rotate(-2deg); }
        100% { transform: rotate(2deg); }
    }

    .anim-blink {
        animation: blink 3s infinite;
    }
    @keyframes blink {
        0%, 100% { opacity: 1; }
        50% { opacity: 0.2; }
    }

    /* Pet Behavior Animations */
    .anim-bounce {
        animation: bounce 1s ease-in-out infinite;
    }
    @keyframes bounce {
        0%, 100% { transform: translateY(0); }
        50% { transform: translateY(-8px); }
    }

    .anim-breathe {
        animation: breathe 3s ease-in-out infinite;
    }
    @keyframes breathe {
        0%, 100% { transform: scale(1); }
        50% { transform: scale(1.05); }
    }

    .anim-pace {
        animation: pace 6s linear infinite;
    }
    @keyframes pace {
        0% { transform: translateX(0) scaleX(1); }
        25% { transform: translateX(40px) scaleX(1); }
        26% { transform: translateX(40px) scaleX(-1); } /* flip */
        75% { transform: translateX(-40px) scaleX(-1); }
        76% { transform: translateX(-40px) scaleX(1); } /* flip back */
        100% { transform: translateX(0) scaleX(1); }
    }

    .anim-shake {
        animation: shake 0.2s linear infinite;
    }
    @keyframes shake {
        0% { transform: translateX(-2px); }
        50% { transform: translateX(2px); }
        100% { transform: translateX(-2px); }
    }
</style>

<defs>
<g
      id="cat_happy"
      inkscape:label="gats"
      inkscape:groupmode="layer"
      transform="matrix(1.25 0 0 -1.25 0 700)"
    >
    <g
        id="g3246"
        transform="matrix(.88815 0 0 .88815 456.78 214.39)"
      >
      <path
          id="path3248"
          style="fill:#000000"
          inkscape:connector-curvature="0"
          d="m0 0c-4.942 32.123-20.005 60.481-24.658 69.321-4.652 8.84-10.7 26.519-9.002 51.363 1.699 24.843-9.608 96.585-67.298 142.64-57.69 46.059-111 60.386-118.17 65.134-7.773 5.143-39.08 19.54-46.471 22.983-7.391 3.444-37.273 7.258-50.677 8.968s-27.537-3.105-32.96-3.148c-5.423-0.042-35.984 9.347-40.636 9.347s-1.861-4.652-1.396-7.444c0.466-2.791 10.277-21.046 10.277-21.046s-10.742 0.11-11.207-2.216 12.769-12.274 12.769-12.274-6.256-20.293-6.581-24.874c-0.326-4.582 5.908-20.077 6.839-24.264 0.93-4.187 0-13.958 0-13.958l4.622-4.716s7.939-5.519 9.8-6.449c1.861-0.931 8.132 0.126 8.132 0.126 4.875-1.734 20.713 6.853 29.088 11.97 8.374 5.118 20.005 6.513 23.361 6.539 3.355 0.024 6.414-10.727 6.274-14.241-0.141-3.516 2.932-16.491 3.862-20.678 0.931-4.187-4.332-12.528-4.332-12.528-4.798 2.359-11.486 4.619-15.673 6.015-4.188 1.396-17.214 10.7-20.936 11.631s-6.979 1.396-13.585 3.216c-6.606 1.821-28.287 6.554-32.942 5.95-4.654-0.603-16.746-7.306-18.451-14.149-1.704-6.845 7.753-13.627 11.475-15.023 3.722-1.395 15.353 1.396 19.447 0.973 4.095-0.423 6.71-3.791 6.71-3.791 14.526-0.491 21.298-9.278 29.672-16.722s47.92-29.31 53.503-30.241 20.933 2.981 20.933 2.981 4.655-18.799 6.516-29.964c1.861-11.166-6.048-47.456-6.978-54.434-0.931-6.979-1.163-15.818-2.908-18.145-1.423-1.898-2.908-1.512-10.628-2.678-9.245-1.396-19.409-15.013-19.031-21.049 0.465-7.444 8.536-9.667 12.137-9.667h12.753c5.583 0 21.401 2.223 21.401 2.223l25.124-2.223h151.72c15.146 0 30.171-30.879 32.748-54.071 2.791-25.123-14.669-90.658-25.589-113.99-10.235-21.866-32.824-46.467-54.433-51.176-36.289-7.909-60.947 15.818-79.092 12.562-16.51-2.964-13.027-21.401-5.583-28.846 6.869-6.869 66.112-27.327 105.14-14.887 42.337 13.492 67.63 62.931 81.418 102.82 13.047 37.712 19.095 75.861 13.512 112.15m-198.83 69.434c-8.839-3.256-16.283-8.374-21.866-6.979-5.583 1.396-7.909-2.791-12.562-1.395 0 0 4.653 13.957 9.297 21.925 4.643 7.969 10.918 33.922 10.918 33.922 1.606-9.753 10.957-25.141 17.935-34.446 6.979-9.305 5.118-9.771-3.722-13.027"
      />
    </g
    >
  </g
  >
<g id="forest_tree_1">
<path d="M637.69 789c46.82-14.7 73.85 24.35 135.43-22.21s71.34-128.41 63.08-153.2c-16.52-64.58-60.08-84.11-63-125.54-3-41.93 41.23-57.69 20.65-120.95-26.45-81.3-65.48-61.71-71.49-70.72s15.32-27-19.83-97.32c-24.78-49.56-41.3-36-57.82-54.07s-4.5-27.36-21.78-39c-25.53-17.27-18.77 3.75-60.08-9C527.56 86 505 54.15 469.74 66.91c-82.17 29.72-55.73 87.7-72.25 105.72s-43.39 14.43-58.41 31-30 61.58-30 76.6 3 52.57 0 61.58-26.13-2.1-44.16 15.92-5.42 29.74-21.92 53.77-57.4 30.89-57.73 92.5c-0.4 75.85 33.41 81.6 26.69 111.23-7.56 33.32-35.1 84-6.56 136.59S282 840.4 340.57 838.9s39-19.53 75.1-19.53 73.59 24 139.68 10.51 53.33-31.75 82.34-40.88z" fill="#00757F" /><path d="M646 604.6c5.32 0 16.52 1.5 18 20.53a39.16 39.16 0 0 1-10.26 30.16s-9.26-10.14-11.26-20.15c-3.03-15.71 4.52-23.78 3.52-30.54zM754 688.08c-2.75-4.55-7.27-14.91 8.23-26a39.16 39.16 0 0 1 31.12-6.84s-3.88 13.17-11.41 20.07c-11.87 10.69-22.67 8.41-27.94 12.77zM398.35 593.07c5 1.94 14.84 7.42 9.3 25.68a39.16 39.16 0 0 1-20.55 24.35s-4.93-12.82-3.15-22.87c2.93-15.72 12.87-20.5 14.4-27.16zM331.52 535.27c5.25-0.87 16.54-1.22 21.13 17.31a39.16 39.16 0 0 1-5.2 31.43s-10.79-8.49-14.41-18c-5.52-15.01 0.57-24.23-1.52-30.74zM248.41 711.5c5.25-0.87 16.54-1.22 21.13 17.31a39.16 39.16 0 0 1-5.2 31.43s-10.79-8.49-14.41-18c-5.52-15.05 0.57-24.24-1.52-30.74zM465.43 430.07c5.29 0.56 16.27 3.23 15.76 22.31a39.16 39.16 0 0 1-13.38 28.92s-8.14-11.06-9.08-21.22c-1.33-15.95 6.99-23.18 6.7-30.01zM380.65 327.94c5.29 0.56 16.27 3.23 15.76 22.31A39.16 39.16 0 0 1 383 379.16s-8.14-11.06-9.08-21.22c-1.31-15.94 7.01-23.17 6.73-30zM481.56 223.27c5.32 0.1 16.49 1.82 17.63 20.87a39.16 39.16 0 0 1-10.84 30s-9.07-10.31-10.88-20.36c-2.7-15.78 4.96-23.78 4.09-30.51zM538 278.32c5.28-0.67 16.58-0.59 20.46 18.1a39.16 39.16 0 0 1-6.39 31.21s-10.46-8.89-13.71-18.58c-4.93-15.2 1.5-24.15-0.36-30.73zM614.89 179.31c5.29 0.55 16.28 3.2 15.81 22.27a39.16 39.16 0 0 1-13.32 28.95s-8.17-11-9.13-21.2c-1.36-15.94 6.94-23.2 6.64-30.02zM665 230.53c5.29 0.55 16.28 3.2 15.81 22.27a39.16 39.16 0 0 1-13.32 28.95s-8.17-11-9.13-21.2c-1.36-15.94 6.89-23.2 6.64-30.02zM698.68 321.54c5.31-0.36 16.58 0.39 19.35 19.28a39.16 39.16 0 0 1-8.22 30.78s-9.92-9.5-12.59-19.35c-4.04-15.48 2.91-24.04 1.46-30.71zM637.09 346.12c4.72-2.46 15.35-6.3 25.47 9.88a39.16 39.16 0 0 1 4.83 31.49s-12.9-4.71-19.3-12.67c-9.92-12.54-6.99-23.16-11-28.7zM679.4 451.67c4.5 0.29 13.89 2.17 14.13 18.34a33.19 33.19 0 0 1-10.32 25s-7.28-9.08-8.43-17.65c-1.69-13.5 5.1-19.92 4.62-25.69zM736.92 372.89c4.17-1.7 13.44-4.11 20.71 10.34a33.19 33.19 0 0 1 1.6 27s-10.51-5-15.29-12.2c-7.38-11.42-4.07-20.16-7.02-25.14zM491.11 328.54c4.17-1.7 13.44-4.11 20.71 10.34a33.19 33.19 0 0 1 1.6 27s-10.51-5-15.29-12.2c-7.38-11.42-4.07-20.16-7.02-25.14zM259.52 495.22c-4.29-1.39-12.92-5.53-9.16-21.26a33.19 33.19 0 0 1 16.16-21.63s4.81 10.59 3.81 19.19c-1.68 13.48-9.85 17.99-10.81 23.7zM244.43 584c-3.22-2.06-9.43-7.3-3-19.41a28.15 28.15 0 0 1 17.89-14.3s1.69 9.73-1 16.57c-4.21 10.69-11.88 12.67-13.89 17.14zM296.62 602.79c-3.22-2.06-9.43-7.3-3-19.41a28.15 28.15 0 0 1 17.89-14.3s1.69 9.73-1 16.57c-4.21 10.67-11.88 12.66-13.89 17.14zM332 342.07c-2.4-3-6.61-9.93 3.36-19.35a28.15 28.15 0 0 1 21.52-7.86s-1.5 9.76-6.2 15.39c-7.46 8.75-15.36 8.22-18.68 11.82zM365.78 269.79c-2.4-3-6.61-9.93 3.36-19.35a28.15 28.15 0 0 1 21.52-7.86s-1.5 9.76-6.2 15.39c-7.46 8.77-15.35 8.21-18.68 11.82zM444.16 258.72c-3.79 0.48-11.92 0.42-14.71-13a28.15 28.15 0 0 1 4.55-22.45s7.52 6.39 9.86 13.35c3.6 10.93-1.02 17.38 0.3 22.1zM448.46 318c-3.54 1.45-11.39 3.52-17.59-8.72a28.15 28.15 0 0 1-1.42-22.86s8.93 4.21 13 10.32c6.28 9.65 3.5 17.07 6.01 21.26zM491.38 196.75c-3.77 0.63-11.89 0.88-15.2-12.44a28.15 28.15 0 0 1 3.73-22.6s7.76 6.1 10.36 13c3.98 10.76-0.39 17.36 1.11 22.04zM575.77 176.12c2.87 2.52 8.21 8.65 0 19.64a28.15 28.15 0 0 1-19.86 11.42s-0.19-9.87 3.48-16.23c5.83-9.95 13.72-10.71 16.38-14.83zM620.08 293.21c-3.81 0.37-11.93 0.08-14.33-13.42a28.15 28.15 0 0 1 5.23-22.3s7.34 6.6 9.47 13.63c3.25 11.02-1.56 17.32-0.37 22.09zM603.76 397c-3.81 0.37-11.93 0.08-14.33-13.42a28.15 28.15 0 0 1 5.23-22.3s7.34 6.6 9.47 13.63c3.25 11.01-1.56 17.31-0.37 22.09z" fill="#5CB087" /><path d="M515.53 671.23s24.08-63.58 20.94-102.15-10.33-139-10.33-139h27.21l13 129.42 27-129.42 20 12.32s-22 86.09-31.06 150.68-17.77 129.68-17.9 146.7c0 0 29.24-14.12 57.11-28.59s59.93-56.09 71.94-56.81 20 18.31 20 22.31-57.79 53.07-76.46 63.08-41.7 14-58.72 36S546.48 839.9 547.91 892s4.43 68.09 4.43 68.09H469.9s0.34-111.14-4.67-157.2-5-83.36-12-114.77-39.48-106.62-56.79-128.59S309 475.82 296 430.07c-10-19.89 6-27.08 12-19.89s53.07 102.3 93.12 118.33c-10.49-41.05-56.07-101.13-52.07-109.14s25.91-13 34.48-5 1.56 22.72 29.6 59.42 40.34 47.93 63.73 93.38 38.67 104.06 38.67 104.06z" fill="#005866" />
</g>
<g id="forest_rock">
<polygon style="fill:#707F7D;" points="125.6,467.2 0,251.2 125.6,35.2 376.8,35.2 502.4,251.2 376.8,467.2 "/>
<polygon style="fill:#617270;" points="125.6,467.2 0,251.2 219.2,180.8 376.8,35.2 502.4,251.2 350.4,427.2 "/>
</g>
<g id="forest_grass" transform="matrix(1.27,0,0,1.27,-0.96,-123.035)">
        <g transform="matrix(1.08664,2.12199e-17,2.12199e-17,1,-10.8633,50.5676)">
            <path d="M10.693,69.932L10.717,61.942L15.701,60.579L18.843,62.761L20.008,59.487L23.617,60.306L24.781,57.032L31.504,59.695L32.901,59.968L46.199,57.032C46.199,57.032 54.228,63.449 54.811,63.722C55.393,63.995 74.599,60.449 74.599,60.449L78.44,57.032L87.168,61.267L97.668,63.729L97.648,69.932L10.693,69.932Z" style="fill:rgb(103,154,69);fill-rule:nonzero;"/>
        </g>
        <g transform="matrix(1.08664,2.12199e-17,2.12199e-17,1,-6.70477,50.5676)">
            <path d="M13.199,68.354L16.925,62.49L23.064,68.422L13.199,68.354Z" style="fill:rgb(53,129,63);fill-rule:nonzero;"/>
        </g>
        <g transform="matrix(1.08664,2.12199e-17,2.12199e-17,1,-6.70477,50.5676)">
            <path d="M30.542,68.354L33.189,65.081L34.936,65.081L39.564,62.42L40.697,65.489L52.745,64.466L57.546,68.149L30.542,68.354Z" style="fill:rgb(53,129,63);fill-rule:nonzero;"/>
        </g>
        <g transform="matrix(1.08664,2.12199e-17,2.12199e-17,1,-6.70477,50.5676)">
            <path d="M69.42,67.943L70.117,66.035L75.122,65.215L76.579,63.17L88.449,68.148L69.42,67.943Z" style="fill:rgb(53,129,63);fill-rule:nonzero;"/>
        </g>
    </g>
<g id="forest_plant">
	<path style="fill:#7CD8A4;" d="M182.575,269.265c65.987,65.987,73.497,165.462,73.497,165.462s-99.475-7.51-165.462-73.497
		S17.113,195.768,17.113,195.768S116.588,203.278,182.575,269.265z"/>
	<path style="fill:#7CD8A4;" d="M421.391,361.23c-65.987,65.987-165.462,73.497-165.462,73.497s7.51-99.475,73.497-165.462
		s165.462-73.497,165.462-73.497S487.377,295.243,421.391,361.23z"/>
	<path style="fill:#7CD8A4;" d="M403.54,202.979c-27.835,40.37-78.532,53.699-78.532,53.699s-5.566-52.123,22.27-92.492
		s78.532-53.699,78.532-53.699S431.375,162.61,403.54,202.979z"/>
	<path style="fill:#7CD8A4;" d="M104.275,198.683c27.835,40.37,78.532,53.699,78.532,53.699s5.566-52.123-22.27-92.492
		s-78.532-53.699-78.532-53.699S76.439,158.313,104.275,198.683z"/>
</g>
<g id="forest_flower_full">
<path d="M512.144 986.56a30.728 30.728 0 0 1-30.752-30.752V693.152a30.736 30.736 0 1 1 61.488 0v262.664a30.72 30.72 0 0 1-30.736 30.744z" fill="#0092D2" /><path d="M511.664 1008a30.728 30.728 0 0 1-30.752-30.752c0-119.408-167.52-220.312-365.824-220.312-17 0-30.752-13.752-30.752-30.752s13.76-30.76 30.752-30.76c239.632 0 427.304 123.8 427.304 281.824A30.72 30.72 0 0 1 511.664 1008z" fill="#0092D2" /><path d="M512.32 1008a30.728 30.728 0 0 1-30.752-30.752c0-158.024 187.744-281.824 427.336-281.824 17 0 30.752 13.76 30.752 30.76s-13.752 30.752-30.752 30.752c-198.264 0-365.84 100.904-365.84 220.312A30.736 30.736 0 0 1 512.32 1008z" fill="#0092D2" /><path d="M908.904 695.432c-157.304 0-291.848 53.576-366.032 134.968V693.152a30.736 30.736 0 0 0-30.736-30.76c-1.352 0-2.52 0.608-3.84 0.792v344.168c1.168 0.12 2.168 0.656 3.36 0.656 0.12 0 0.208-0.064 0.336-0.064 0.12 0 0.208 0.064 0.328 0.064a30.736 30.736 0 0 0 30.744-30.752c0-119.408 167.576-220.312 365.84-220.312 17 0 30.752-13.752 30.752-30.752s-13.752-30.76-30.752-30.76z" fill="#0085BF" /><path d="M253.744 247.248c-43.848 0-79.336 47.72-79.336 106.648 0 37.992 14.8 71.384 37.056 90.28 12.248 10.336 26.728 16.368 42.28 16.368l0.36-0.36c-31 30.96-22.344 89.904 19.312 131.528 26.848 26.904 60.936 40 90.04 37.6 15.944-1.392 30.48-7.336 41.472-18.328l0.184 0.432c0.024 43.784 47.808 79.336 106.672 79.336 38.072 0 71.336-14.888 90.256-37.12 10.336-12.248 16.408-26.728 16.408-42.28h0.056c10.992 11.048 25.52 17 41.448 18.376 29.136 2.344 63.176-10.752 90.096-37.664 41.624-41.624 50.272-100.528 19.28-131.52l0.896 0.088c15.56 0.032 30.032-6.032 42.28-16.336 22.288-18.92 37.064-52.28 37.064-90.272 0-58.896-35.496-106.672-79.344-106.672l0.424-0.504c10.992-11 16.936-25.504 18.32-41.416 2.344-29.136-10.752-63.216-37.6-90.072C709.68 73.688 650.816 65.008 619.824 96v-0.664C619.824 51.496 572.072 16 513.16 16c-37.992 0-71.384 14.808-90.24 37.064-10.36 12.248-16.4 26.728-16.4 42.28l-0.752-0.176c-30.992-30.96-90.936-21.144-132.56 20.544-26.848 26.848-40 60.936-37.632 90.032 1.352 15.92 7.328 30.456 18.32 41.416l-0.152 0.088z" fill="#F5B146" /><path d="M508.296 690.448c1.168 0.064 2.28 0.296 3.488 0.296 10.456 0 20.408-1.32 29.952-3.424 0.304-0.064 0.608-0.24 0.904-0.304 6.424-1.44 12.552-3.296 18.384-5.576 2.936-1.152 5.64-2.52 8.408-3.848a106.68 106.68 0 0 0 11.888-6.544c2.04-1.312 4.152-2.64 6.072-4.08 5.4-4.088 10.504-8.408 14.648-13.336 10.336-12.248 16.408-26.728 16.408-42.28h0.056c10.992 11.048 25.52 17 41.448 18.376 29.136 2.344 63.176-10.752 90.096-37.664 41.624-41.624 50.272-100.528 19.28-131.52l0.896 0.088c15.56 0.032 30.032-6.032 42.28-16.336 22.288-18.92 37.064-52.28 37.064-90.272 0-58.896-35.496-106.672-79.344-106.672l0.424-0.504c10.992-11 16.936-25.504 18.32-41.416 2.344-29.136-10.752-63.216-37.6-90.072C709.68 73.688 650.816 65.008 619.824 96v-0.664C619.824 51.496 572.072 16 513.16 16c-1.68 0-3.208 0.424-4.864 0.488v673.96z" fill="#EDA02F" /><path d="M512 353.384m-80.736 0a80.736 80.736 0 1 0 161.472 0 80.736 80.736 0 1 0-161.472 0Z" fill="#E5226B" /><path d="M508.296 273.008v160.736c1.264 0.032 2.432 0.36 3.696 0.36 44.576 0 80.744-36.128 80.744-80.72 0-44.6-36.168-80.728-80.744-80.728-1.264 0-2.432 0.328-3.696 0.352z" fill="#C9005B" />
</g>
<g id="weather_cloud_normal">

<g>

<g>

<path d="M31,25l-0.8-0.9c1.6-1.3,3.6-2,5.6-2v1.2C34.1,23.3,32.4,23.9,31,25z" style="fill:#0D5FC3;"/>

</g>

</g>

<g>

<g>

<path d="M29.5,28.4L28.4,28c0.3-0.7,0.7-1.4,1.2-2l0.9,0.8C30.1,27.2,29.8,27.8,29.5,28.4z" style="fill:#4DE0F9;"/>

</g>

</g>

<g>

<g>

<path d="M28.8,27.9l-1.1-0.5c0.3-0.7,0.7-1.4,1.2-2l0.9,0.8C29.5,26.7,29.1,27.3,28.8,27.9z" style="fill:#0D5FC3;"/>

</g>

</g>

<g>

<g>

<g>

<path d="M32.8,21.8c0.4,0,0.7-0.1,1.1-0.1c0.3,0,0.5,0,0.8,0c-1.2-1.8-2.9-3.2-4.8-4.1      C31.1,18.8,32.1,20.2,32.8,21.8z" style="fill:#4DE0F9;"/>

</g>

</g>

<g>

<g>

<path d="M39.9,24.3c1.4,1.5,2.3,3.5,2.3,5.7c0,1.1-0.2,2.2-0.6,3.1h-18c0,0.1,0,0.3,0,0.4      c0,0.6,0.1,1.1,0.2,1.6h20.8c0.4-1,0.6-2,0.6-3.1C45.2,28.5,43,25.5,39.9,24.3z" style="fill:#4DE0F9;"/>

</g>

</g>

</g>

<g>

<g>

<path d="M44,34.7H5.5l-0.1-0.5c-0.1-0.6-0.2-1.2-0.2-1.7c0-3.7,2.8-6.8,6.4-7.3     c1.1-5.9,6.2-10.3,12.3-10.3c4.9,0,9.3,2.8,11.3,7.2c0.3,0,0.5,0,0.7,0c4.9,0,8.9,4,8.9,8.9c0,1.2-0.2,2.3-0.7,3.3L44,34.7z      M6.5,33.5h36.7c0.3-0.8,0.4-1.7,0.4-2.5c0-4.2-3.5-7.7-7.7-7.7c-0.3,0-0.6,0-1,0.1l-0.5,0.1L34.2,23c-1.8-4.2-5.9-6.9-10.4-6.9     c-5.6,0-10.4,4.2-11.2,9.7l-0.1,0.5l-0.5,0c-3.2,0.2-5.7,2.9-5.7,6.2C6.4,32.9,6.4,33.2,6.5,33.5z" style="fill:#0D5FC3;"/>

</g>

</g>

</g>
<g id="weather_cloud_storm">
<path d="M16.2857 20C19.4416 20 22 17.4717 22 14.3529C22 11.8811 20.393 9.78024 18.1551 9.01498C17.8371 6.19371 15.4159 4 12.4762 4C9.32028 4 6.7619 6.52827 6.7619 9.64706C6.7619 10.3369 6.88706 10.9978 7.11616 11.6089C6.8475 11.5567 6.56983 11.5294 6.28571 11.5294C3.91878 11.5294 2 13.4256 2 15.7647C2 18.1038 3.91878 20 6.28571 20H16.2857Z" fill="#1C274C"/>
</g>
<g id="weather_lightning">
<title>lightning-trio</title>
<path d="M3.385 3.897l15.703 20.922-0.304-3.73 10.456 8.282-11.526-17.404 0.304 3.73-14.634-11.8zM4.843 3.041l16.717 7.313-1.073-2.295 8.437 0.865-11.293-6.35 1.073 2.295-13.861-1.829zM2.276 5.725l2.063 17.887 1.448-2.31 3.85 7.877-0.543-13.632-1.448 2.31-5.37-12.132z"></path>
</g>
<g id="weather_sun">
	<path fill-rule="evenodd" clip-rule="evenodd" fill="#394240" d="M32,14.002c-9.941,0-18,8.059-18,18s8.059,18,18,18
		s18-8.059,18-18S41.941,14.002,32,14.002z M32,48.002c-8.837,0-16-7.164-16-16s7.163-16,16-16s16,7.164,16,16
		S40.837,48.002,32,48.002z"/>
	<path fill-rule="evenodd" clip-rule="evenodd" fill="#394240" d="M63,31H53c-0.553,0-1,0.447-1,1s0.447,1,1,1h10
		c0.553,0,1-0.447,1-1S63.553,31,63,31z"/>
	<path fill-rule="evenodd" clip-rule="evenodd" fill="#394240" d="M11.457,36.469l-3.863,1.035
		c-0.534,0.145-0.851,0.693-0.707,1.227c0.143,0.533,0.69,0.85,1.225,0.705l3.863-1.035c0.533-0.143,0.85-0.689,0.707-1.225
		C12.539,36.643,11.99,36.326,11.457,36.469z"/>
	<path fill-rule="evenodd" clip-rule="evenodd" fill="#394240" d="M49.32,22c0.277,0.479,0.888,0.643,1.367,0.365l8.66-5
		c0.479-0.275,0.643-0.887,0.365-1.365c-0.275-0.479-0.887-0.643-1.365-0.365l-8.66,5C49.208,20.912,49.045,21.521,49.32,22z"/>
	<path fill-rule="evenodd" clip-rule="evenodd" fill="#394240" d="M17.858,46.143c-0.39-0.391-1.023-0.389-1.414,0l-2.828,2.828
		c-0.391,0.391-0.39,1.025,0.001,1.414c0.39,0.391,1.022,0.391,1.413,0l2.828-2.828C18.249,47.168,18.249,46.533,17.858,46.143z"/>
	<path fill-rule="evenodd" clip-rule="evenodd" fill="#394240" d="M42,14.68c0.479,0.275,1.09,0.113,1.367-0.367l5-8.66
		C48.644,5.174,48.48,4.562,48,4.287c-0.478-0.277-1.088-0.113-1.365,0.365l-4.999,8.662C41.358,13.793,41.522,14.402,42,14.68z"/>
	<path fill-rule="evenodd" clip-rule="evenodd" fill="#394240" d="M26.824,51.318c-0.532-0.143-1.08,0.176-1.225,0.707l-1.035,3.863
		c-0.143,0.535,0.176,1.082,0.709,1.225c0.533,0.145,1.08-0.172,1.223-0.707l1.035-3.863C27.676,52.012,27.359,51.463,26.824,51.318
		z"/>
	<path fill-rule="evenodd" clip-rule="evenodd" fill="#394240" d="M32,12c0.554,0,1.001-0.447,1.002-1V1c0-0.553-0.447-1-1.002-1
		c-0.551,0-0.998,0.447-0.999,1l0.001,10C31.002,11.553,31.449,12,32,12z"/>
	<path fill-rule="evenodd" clip-rule="evenodd" fill="#394240" d="M38.402,52.025c-0.141-0.533-0.689-0.85-1.225-0.707
		c-0.533,0.143-0.848,0.691-0.707,1.225l1.035,3.863c0.144,0.535,0.693,0.85,1.227,0.707s0.849-0.689,0.705-1.225L38.402,52.025z"/>
	<path fill-rule="evenodd" clip-rule="evenodd" fill="#394240" d="M20.637,14.312c0.275,0.479,0.887,0.643,1.363,0.367
		c0.48-0.277,0.645-0.887,0.368-1.367l-5-8.66C17.092,4.174,16.48,4.01,16,4.287c-0.477,0.275-0.641,0.887-0.365,1.365
		L20.637,14.312z"/>
	<path fill-rule="evenodd" clip-rule="evenodd" fill="#394240" d="M47.558,46.141c-0.388-0.389-1.022-0.389-1.414,0
		c-0.391,0.391-0.388,1.025,0,1.414l2.828,2.828c0.392,0.393,1.025,0.389,1.415,0c0.391-0.391,0.391-1.021-0.001-1.414
		L47.558,46.141z"/>
	<path fill-rule="evenodd" clip-rule="evenodd" fill="#394240" d="M4.654,17.365l8.662,4.998c0.477,0.277,1.088,0.113,1.363-0.363
		c0.277-0.48,0.115-1.09-0.364-1.367l-8.661-5C5.176,15.355,4.564,15.52,4.287,16C4.013,16.477,4.176,17.088,4.654,17.365z"/>
	<path fill-rule="evenodd" clip-rule="evenodd" fill="#394240" d="M52.027,38.4l3.863,1.035c0.535,0.145,1.082-0.176,1.225-0.709
		c0.144-0.533-0.172-1.08-0.707-1.223l-3.863-1.035c-0.531-0.145-1.081,0.172-1.225,0.707C51.176,37.709,51.496,38.256,52.027,38.4z
		"/>
	<path fill-rule="evenodd" clip-rule="evenodd" fill="#394240" d="M12,32c0.001-0.555-0.445-1-0.998-1.002L1,31
		c-0.552,0-1,0.445-1,1c0.001,0.551,0.448,1,1.001,1l10.001-0.002C11.553,32.998,12.001,32.551,12,32z"/>
	<path fill-rule="evenodd" clip-rule="evenodd" fill="#394240" d="M52.545,27.529l3.863-1.035c0.535-0.143,0.85-0.693,0.706-1.227
		c-0.142-0.531-0.688-0.848-1.224-0.705l-3.863,1.035c-0.533,0.141-0.85,0.691-0.707,1.225
		C51.461,27.355,52.012,27.67,52.545,27.529z"/>
	<circle fill-rule="evenodd" clip-rule="evenodd" fill="#F9EBB2" cx="32" cy="32" r="16"/>
	<path fill-rule="evenodd" clip-rule="evenodd" fill="#394240" d="M14.68,42c-0.275-0.48-0.886-0.645-1.365-0.369l-8.661,5.002
		C4.176,46.91,4.01,47.52,4.287,48c0.277,0.477,0.889,0.641,1.367,0.365l8.66-5.002C14.791,43.088,14.957,42.479,14.68,42z"/>
	<path fill-rule="evenodd" clip-rule="evenodd" fill="#394240" d="M46.144,17.855c0.389,0.393,1.022,0.389,1.414,0l2.828-2.828
		c0.392-0.391,0.39-1.023-0.002-1.414c-0.388-0.391-1.021-0.391-1.412,0l-2.828,2.828C45.752,16.83,45.754,17.465,46.144,17.855z"/>
	<path fill-rule="evenodd" clip-rule="evenodd" fill="#394240" d="M22,49.32c-0.479-0.277-1.088-0.113-1.365,0.363l-5,8.664
		c-0.275,0.477-0.115,1.088,0.365,1.365c0.479,0.273,1.09,0.109,1.367-0.367l4.998-8.662C22.641,50.207,22.48,49.596,22,49.32z"/>
	<path fill-rule="evenodd" clip-rule="evenodd" fill="#394240" d="M37.178,12.68c0.531,0.145,1.078-0.176,1.225-0.707l1.035-3.863
		c0.143-0.535-0.176-1.084-0.709-1.225c-0.531-0.145-1.08,0.172-1.223,0.707l-1.035,3.863C36.324,11.986,36.645,12.535,37.178,12.68
		z"/>
	<path fill-rule="evenodd" clip-rule="evenodd" fill="#394240" d="M32,52c-0.553-0.002-0.998,0.445-1,0.998l0.002,10.004
		C31.002,63.551,31.445,64,32,64c0.553,0,1-0.449,1.001-1l-0.003-10.002C32.998,52.447,32.555,52,32,52z"/>
	<path fill-rule="evenodd" clip-rule="evenodd" fill="#394240" d="M25.6,11.973c0.139,0.533,0.691,0.85,1.225,0.707
		c0.532-0.141,0.846-0.691,0.707-1.225l-1.035-3.863c-0.145-0.535-0.693-0.852-1.227-0.707c-0.531,0.143-0.85,0.689-0.705,1.225
		L25.6,11.973z"/>
	<path fill-rule="evenodd" clip-rule="evenodd" fill="#394240" d="M43.363,49.686C43.088,49.209,42.48,49.043,42,49.32
		c-0.479,0.275-0.641,0.885-0.367,1.365l5.004,8.66c0.275,0.479,0.883,0.645,1.363,0.367c0.479-0.277,0.642-0.889,0.367-1.367
		L43.363,49.686z"/>
	<path fill-rule="evenodd" clip-rule="evenodd" fill="#394240" d="M16.443,17.855c0.387,0.395,1.023,0.391,1.414,0
		c0.391-0.387,0.387-1.02,0-1.414l-2.828-2.828c-0.393-0.391-1.025-0.389-1.415,0.002c-0.39,0.389-0.392,1.021,0.001,1.412
		L16.443,17.855z"/>
	<path fill-rule="evenodd" clip-rule="evenodd" fill="#394240" d="M59.348,46.633l-8.663-4.998
		c-0.478-0.275-1.087-0.115-1.363,0.367c-0.278,0.477-0.112,1.086,0.364,1.363l8.664,5c0.477,0.275,1.086,0.115,1.363-0.365
		C59.988,47.52,59.824,46.91,59.348,46.633z"/>
	<path fill-rule="evenodd" clip-rule="evenodd" fill="#394240" d="M11.974,25.598L8.11,24.562c-0.536-0.143-1.083,0.176-1.225,0.709
		c-0.144,0.531,0.171,1.08,0.707,1.225l3.863,1.033c0.531,0.146,1.081-0.174,1.225-0.707C12.825,26.293,12.505,25.746,11.974,25.598
		z"/>
	<path fill-rule="evenodd" clip-rule="evenodd" fill="#394240" d="M32,20.002c-0.553,0-1,0.447-1,1s0.447,1,1,1
		c5.522,0,10,4.477,10,10c0,0.553,0.447,1,1,1s1-0.447,1-1C44,25.375,38.627,20.002,32,20.002z"/>
</g>
<g id="gifts_fish" transform="scale(2)">
  <!-- Fish body -->
  <ellipse cx="15" cy="10" rx="8" ry="4" fill="#1e90ff"/>
  <!-- Fish tail -->
  <polygon points="6,10 0,5 0,15" fill="#1e90ff"/>
  <!-- Fish eye -->
  <circle cx="20" cy="9" r="1" fill="#000000"/>
  <!-- Fish fin -->
  <path d="M 12 6 Q 15 2 18 6" fill="none" stroke="#00bfff" stroke-width="1"/>
</g>
</defs>
<rect id="sky" x="0" y="0" width="800" height="300" fill="#87CEEB" />
<rect id="ground" x="0" y="240" width="800" height="60" fill="#4a7c3f" />
<g transform="translate(80, 168)"><g class="anim-sway"><use href="#forest_tree_1" /></g></g>
<g transform="translate(350, 168)"><g class="anim-sway"><use href="#forest_tree_1" /></g></g>
<g transform="translate(650, 168)"><g class="anim-sway"><use href="#forest_tree_1" /></g></g>
<use href="#forest_rock" x="300" y="235" />
<use href="#forest_rock" x="720" y="240" />
<use href="#forest_grass" x="500" y="228" />
<g transform="translate(160, 195)"><g class="anim-sway"><use href="#forest_plant" /></g></g>
<g transform="translate(600, 210)"><g class="anim-breathe"><use href="#forest_flower_full" /></g></g>
<g transform="translate(0, 0)"><g class="anim-rain"><use href="#weather_sun" /></g></g>
<g transform="translate(430, 220)"><g class="anim-float"><use href="#gifts_fish" /></g></g>
<g transform="translate(400, 210)"><g class="anim-bounce"><use href="#cat_happy" /></g></g>
<g id="ui" transform="translate(10, 10)">
<rect x="0" y="0" width="780" height="90" fill="#000000" opacity="0.6" rx="5" />
<text x="10" y="20" font-family="sans-serif" font-size="14" fill="#ffffff" font-weight="bold">Status</text>
<text x="10" y="40" font-family="sans-serif" font-size="12" fill="#ffffff">Mood: Happy</text>
<text x="10" y="55" font-family="sans-serif" font-size="12" fill="#ffffff">Friendship: 80</text>
<text x="10" y="70" font-family="sans-serif" font-size="12" fill="#ffffff">Energy: 100</text>
<text x="10" y="85" font-family="sans-serif" font-size="12" fill="#ffffff">Hunger: 0</text>
<text x="200" y="20" font-family="sans-serif" font-size="14" fill="#ffffff" font-weight="bold">Top Friends</text>
<text x="200" y="40" font-family="sans-serif" font-size="12" fill="#ffffff">1. armaanjain-byte (56)</text>
<text x="450" y="20" font-family="sans-serif" font-size="14" fill="#ffffff" font-weight="bold">Recent Activity</text>
<text x="450" y="40" font-family="sans-serif" font-size="12" fill="#ffffff">Gift: Fish (From: armaanjain-byte)</text>
<text x="450" y="55" font-family="sans-serif" font-size="12" fill="#ffd700">Thanks armaanjain-byte for the fish!</text>
<text x="10" y="280" font-family="monospace" font-size="10" fill="#ff0000">DEBUG - Friendship: 80 | Last Gift: fish | Gifted By: armaanjain-byte | Recent Action: gift_fish</text>
</g>
</svg>