<?xml version="1.0" encoding="iso-8859-1"?>
<!-- Uploaded to: SVG Repo, www.svgrepo.com, Generator: SVG Repo Mixer Tools -->
<svg height="800px" width="800px" version="1.1" id="Layer_1" xmlns="http://www.w3.org/2000/svg" xmlns:xlink="http://www.w3.org/1999/xlink" 
	 viewBox="0 0 503.804 503.804" xml:space="preserve">
<g transform="translate(1)">
	<polygon style="fill:#FCC309;" points="217.328,419.869 284.476,419.869 284.476,352.722 217.328,352.722 	"/>
	<path style="fill:#FFDD09;" d="M301.263,445.05c0,27.698-22.662,50.361-50.361,50.361s-50.361-22.662-50.361-50.361
		s22.662-50.361,50.361-50.361S301.263,417.351,301.263,445.05"/>
	<path style="fill:#FD9808;" d="M250.902,394.689c-4.197,0-8.393,0.839-11.751,1.679c21.823,5.875,36.931,25.18,36.931,48.682
		c0,23.502-15.948,43.646-38.61,48.682c4.197,0.839,8.393,1.679,13.43,1.679c27.698,0,50.361-22.662,50.361-50.361
		S278.6,394.689,250.902,394.689"/>
	<g>
		<path style="fill:#FFDD09;" d="M175.361,436.656c0,23.502-18.466,41.967-41.967,41.967s-41.967-18.466-41.967-41.967
			c0-23.502,18.466-41.967,41.967-41.967C156.895,394.689,175.361,413.994,175.361,436.656"/>
		<path style="fill:#FFDD09;" d="M410.377,436.656c0,23.502-18.466,41.967-41.967,41.967c-23.502,0-41.967-18.466-41.967-41.967
			c0-23.502,18.466-41.967,41.967-41.967C391.912,394.689,410.377,413.994,410.377,436.656"/>
	</g>
	<path style="fill:#FD9808;" d="M368.41,394.689c-4.197,0-8.393,0.839-11.751,1.679c16.787,5.875,28.538,20.984,28.538,39.449
		c0,19.305-12.59,34.413-30.216,40.289c4.197,1.679,8.393,2.518,13.43,2.518c23.502,0,41.967-18.466,41.967-41.967
		C410.377,413.155,391.912,394.689,368.41,394.689"/>
	<path style="fill:#FFDD09;" d="M57.853,386.296c0,18.466-10.911,33.574-25.18,33.574s-25.18-15.108-25.18-33.574
		s10.911-33.574,25.18-33.574S57.853,367.83,57.853,386.296"/>
	<g>
		<path style="fill:#FCC309;" d="M136.751,395.528c21.823,1.679,38.61,19.305,38.61,41.967c0,5.036-0.839,9.233-2.518,14.269
			l27.698-15.108l25.18-75.541L136.751,395.528z"/>
		<path style="fill:#FCC309;" d="M32.672,352.722c14.269,0,25.18,15.108,25.18,33.574s-10.911,33.574-25.18,33.574h62.111
			c6.715-14.269,20.984-25.18,38.61-25.18c1.679,0,2.518,0,4.197,0l88.131-33.574v-8.393H32.672z"/>
		<path style="fill:#FCC309;" d="M327.282,444.21c-0.839-2.518-0.839-5.036-0.839-7.554c0-2.518,0-4.197,0.839-6.715
			c3.357-20.144,20.144-35.252,41.128-35.252l-92.328-33.574l25.18,75.541l27.698,14.269l0,0
			C328.122,448.407,327.282,446.728,327.282,444.21"/>
	</g>
	<path style="fill:#FFDD09;" d="M443.951,386.296c0,18.466,10.911,33.574,25.18,33.574s25.18-15.108,25.18-33.574
		s-10.911-33.574-25.18-33.574S443.951,367.83,443.951,386.296"/>
	<path style="fill:#FD9808;" d="M469.131,352.722c-4.197,0-9.233,1.679-12.59,5.036c7.554,5.875,12.59,16.787,12.59,28.538
		c0,12.59-5.036,23.502-12.59,28.538c3.357,2.518,8.393,5.036,12.59,5.036c14.269,0,25.18-15.108,25.18-33.574
		S483.4,352.722,469.131,352.722"/>
	<g>
		<path style="fill:#FFFFFF;" d="M133.394,394.689c4.197,0,8.393,0.839,11.751,1.679c-16.787,5.875-28.538,20.984-28.538,39.449
			c0,19.305,12.59,34.413,30.216,40.289c-4.197,1.679-8.393,2.518-13.43,2.518c-23.502,0-41.967-18.466-41.967-41.967
			C91.427,413.155,109.892,394.689,133.394,394.689"/>
		<path style="fill:#FFFFFF;" d="M32.672,352.722c4.197,0,9.233,1.679,12.59,5.036c-7.554,5.036-12.59,15.948-12.59,28.538
			c0,12.59,5.036,23.502,12.59,28.538c-3.357,3.357-8.393,5.036-12.59,5.036c-14.269,0-25.18-15.108-25.18-33.574
			S18.404,352.722,32.672,352.722"/>
	</g>
	<path style="fill:#FCC309;" d="M469.131,352.722c-14.269,0-25.18,15.108-25.18,33.574s10.911,33.574,25.18,33.574H407.02
		c-6.715-14.269-20.984-25.18-38.61-25.18c-1.679,0-2.518,0-4.197,0l-88.131-33.574v-8.393H469.131z"/>
	<path style="fill:#FFDD09;" d="M267.689,8.591c0,0-27.698-3.357-52.879,15.108c-15.948,11.751-23.502,31.895-21.823,52.039
		c0.839,8.393,2.518,18.466,5.875,27.698c1.679,5.875,2.518,12.59,0,17.626c-3.357,7.554-9.233,13.43-23.502,13.43
		c0,0-25.18,4.197-25.18-33.574c0,0-60.433,43.646,8.393,92.328c0,0,25.18,15.108,25.18,33.574c0,0,4.197,33.574-25.18,33.574
		c0,0-42.807,6.715-50.361-33.574c0,0-61.272,102.4,50.361,125.902h176.262c0,0,71.344-10.911,50.361-117.508
		c0,0-68.826,35.252-66.308-36.931c0-9.233,5.036-21.823,15.108-33.574c24.341-27.698,23.502-70.505-0.839-99.043
		c-5.036-4.197-9.233-9.233-15.108-15.108c0,0-5.036,13.43-15.948,25.18c-19.305,20.984-54.557,3.357-50.361-24.341
		C253.42,39.646,257.617,26.217,267.689,8.591"/>
	<g>
		<path style="fill:#FD9808;" d="M307.977,165.548c-10.072,10.911-14.269,24.341-15.108,33.574
			c-0.839,46.164,26.859,48.682,47.003,43.646c-12.59-4.197-22.662-15.948-21.823-43.646c0-9.233,5.036-21.823,15.108-33.574
			c24.341-27.698,23.502-70.505-0.839-99.043c-4.197-5.036-8.393-10.911-14.269-15.948c0,0-3.357,7.554-10.072,16.787
			C331.479,95.883,332.318,137.85,307.977,165.548"/>
		<path style="fill:#FD9808;" d="M385.197,235.214c0,0-10.911,5.875-23.502,7.554c15.108,99.882-52.039,109.954-52.039,109.954
			h25.18C334.836,352.722,406.181,341.81,385.197,235.214"/>
		<path style="fill:#FD9808;" d="M225.722,50.558c-3.357,24.341,22.662,40.289,41.967,31.056
			c-10.911-5.036-19.305-16.787-16.787-31.056c1.679-10.911,6.715-25.18,15.948-41.967c0,0-11.751-1.679-26.859,2.518
			C232.436,27.056,227.4,40.486,225.722,50.558"/>
		<path style="fill:#FD9808;" d="M281.118,340.971c14.269-14.269,15.948-36.931,5.036-53.718l-35.252-52.039l-34.413,52.039
			c-10.911,16.787-9.233,39.449,5.036,53.718c0,0,10.072,11.751,30.216,11.751C250.902,352.722,266.849,354.401,281.118,340.971"/>
	</g>
	<path style="fill:#FD7308;" d="M285.315,287.253l-34.413-52.039l-12.59,18.466l21.823,32.734
		c10.911,16.787,9.233,39.449-5.036,53.718c-5.875,5.875-11.751,8.393-16.787,10.072c4.197,1.679,7.554,2.518,12.59,2.518
		c0,0,15.948,1.679,30.216-11.751C295.387,326.702,297.066,304.04,285.315,287.253"/>
	<g>
		<path style="fill:#FFDD09;" d="M125,33.771c0,5.036-3.357,8.393-8.393,8.393c-5.036,0-8.393-3.357-8.393-8.393
			s3.357-8.393,8.393-8.393C121.643,25.378,125,28.735,125,33.771"/>
		<path style="fill:#FFDD09;" d="M452.345,159.673c0,5.036-3.357,8.393-8.393,8.393c-5.036,0-8.393-3.357-8.393-8.393
			s3.357-8.393,8.393-8.393C448.987,151.279,452.345,154.637,452.345,159.673"/>
		<path style="fill:#FFDD09;" d="M32.672,210.033c0,5.036-3.357,8.393-8.393,8.393s-8.393-3.357-8.393-8.393
			c0-5.036,3.357-8.393,8.393-8.393S32.672,204.997,32.672,210.033"/>
	</g>
	<path d="M250.902,503.804c-32.734,0-58.754-26.02-58.754-58.754s26.02-58.754,58.754-58.754s58.754,26.02,58.754,58.754
		S283.636,503.804,250.902,503.804z M250.902,403.083c-23.502,0-41.967,18.466-41.967,41.967c0,23.502,18.466,41.967,41.967,41.967
		s41.967-18.466,41.967-41.967C292.869,421.548,274.404,403.083,250.902,403.083z"/>
	<path d="M133.394,487.017c-27.698,0-50.361-22.662-50.361-50.361c0-27.698,22.662-50.361,50.361-50.361
		s50.361,22.662,50.361,50.361C183.754,464.355,161.092,487.017,133.394,487.017z M133.394,403.083
		c-18.466,0-33.574,15.108-33.574,33.574s15.108,33.574,33.574,33.574s33.574-15.108,33.574-33.574S151.859,403.083,133.394,403.083
		z"/>
	<path d="M368.41,487.017c-27.698,0-50.361-22.662-50.361-50.361c0-27.698,22.662-50.361,50.361-50.361
		c27.698,0,50.361,22.662,50.361,50.361C418.771,464.355,396.108,487.017,368.41,487.017z M368.41,403.083
		c-18.466,0-33.574,15.108-33.574,33.574s15.108,33.574,33.574,33.574c18.466,0,33.574-15.108,33.574-33.574
		S386.876,403.083,368.41,403.083z"/>
	<path d="M32.672,428.263c-18.466,0-33.574-18.466-33.574-41.967c0-23.502,15.108-41.967,33.574-41.967s33.574,18.466,33.574,41.967
		C66.246,409.797,51.138,428.263,32.672,428.263z M32.672,361.115c-9.233,0-16.787,11.751-16.787,25.18s7.554,25.18,16.787,25.18
		s16.787-11.751,16.787-25.18S41.905,361.115,32.672,361.115z"/>
	<path d="M172.843,459.319c-1.679,0-4.197-0.839-5.875-1.679c-2.518-2.518-3.357-5.875-2.518-9.233
		c1.679-4.197,1.679-7.554,1.679-10.911c0-17.626-13.43-31.895-31.056-33.574c-4.197,0-6.715-3.357-7.554-7.554
		s1.679-7.554,5.036-9.233l88.97-33.574c3.357-0.839,6.715-0.839,8.393,1.679c2.518,2.518,3.357,5.875,2.518,8.393l-25.18,75.541
		c-0.839,2.518-2.518,4.197-4.197,5.036l-27.698,14.269C175.361,458.479,174.522,459.319,172.843,459.319z M161.092,394.689
		c13.43,8.393,21.823,23.502,22.662,41.128l10.072-5.036l18.466-55.397L161.092,394.689z"/>
	<path d="M334.836,361.115H158.574c-0.839,0-0.839,0-1.679,0c-34.413-7.554-57.915-22.662-67.987-46.164
		c-17.626-41.128,10.911-89.81,11.751-92.328c1.679-3.357,5.036-4.197,8.393-4.197c3.357,0.839,5.875,3.357,6.715,6.715
		c5.875,31.895,39.449,26.859,41.128,26.859c0.839,0,0.839,0,1.679,0c5.875,0,10.072-1.679,12.59-4.197
		c5.036-5.875,5.036-15.948,4.197-19.305v-0.839c0-11.751-15.948-23.502-20.984-26.02c-25.18-17.626-36.931-36.092-36.931-56.236
		c0-29.377,26.859-49.521,28.538-50.361c2.518-1.679,5.875-1.679,8.393-0.839c2.518,1.679,4.197,4.197,4.197,7.554
		c0,10.911,2.518,18.466,6.715,22.662c4.197,3.357,8.393,2.518,8.393,2.518s0.839,0,1.679,0c11.751,0,14.269-5.875,15.108-7.554
		c1.679-4.197,0.839-8.393,0-11.751c-3.357-8.393-5.036-18.466-5.875-30.216c-2.518-23.502,7.554-46.164,25.18-59.593
		C237.472-3.16,267.689,0.197,268.528,0.197c2.518,0,5.036,1.679,6.715,4.197c0.839,2.518,0.839,5.875,0,7.554
		c-8.393,15.108-13.43,27.698-15.108,39.449c-1.679,10.911,5.036,18.466,11.751,21.823c6.715,3.357,16.787,4.197,24.341-4.197
		c9.233-10.072,14.269-22.662,14.269-22.662c0.839-2.518,3.357-4.197,5.875-5.036c2.518-0.839,5.875,0,7.554,2.518
		c5.875,6.715,10.911,11.751,15.108,17.626c26.859,31.895,27.698,79.738,0.839,109.954c-9.233,10.072-12.59,21.823-12.59,27.698
		c-0.839,17.626,3.357,28.538,10.911,33.574c12.59,8.393,35.252,0,42.807-4.197c2.518-0.839,5.036-0.839,7.554,0
		c2.518,0.839,4.197,3.357,4.197,5.875c8.393,41.128,3.357,74.702-12.59,97.364c-17.626,25.18-43.646,29.377-44.485,29.377
		C335.676,361.115,335.676,361.115,334.836,361.115z M159.413,344.328h174.584c3.357-0.839,20.984-5.036,32.734-22.662
		c12.59-17.626,15.948-42.807,11.751-74.702c-12.59,4.197-33.574,9.233-49.521-0.839c-13.43-8.393-19.305-24.341-19.305-47.843
		c0-12.59,6.715-26.859,16.787-38.61c20.984-24.341,20.984-62.111-0.839-88.131c-1.679-2.518-4.197-4.197-5.875-6.715
		c-2.518,5.036-6.715,10.911-11.751,15.948c-10.911,12.59-28.538,15.108-43.646,8.393c-15.108-7.554-23.502-22.662-20.984-39.449
		c1.679-10.072,5.036-20.984,10.911-32.734c-9.233,0.839-21.823,4.197-34.413,13.43c-13.43,10.072-20.144,26.859-18.466,44.485
		c0.839,10.072,2.518,18.466,5.036,26.02c3.357,8.393,3.357,16.787,0,24.341c-2.518,6.715-10.911,17.626-30.216,17.626
		c-3.357,0-12.59,0.839-20.984-6.715c-5.036-4.197-8.393-10.072-10.911-17.626c-5.036,6.715-10.072,15.108-10.072,25.18
		c0,14.269,10.072,28.538,29.377,41.967c2.518,1.679,28.538,16.787,28.538,40.289c0.839,3.357,1.679,20.144-8.393,31.895
		c-4.197,5.036-11.751,10.072-24.341,10.072c-14.269,2.518-38.61-0.839-52.039-20.984c-5.875,15.948-11.751,39.449-3.357,59.593
		C112.41,325.863,130.876,338.453,159.413,344.328z"/>
	<path d="M94.784,428.263H32.672c-5.036,0-8.393-3.357-8.393-8.393s3.357-8.393,8.393-8.393c9.233,0,16.787-11.751,16.787-25.18
		s-7.554-25.18-16.787-25.18c-5.036,0-8.393-3.357-8.393-8.393c0-5.036,3.357-8.393,8.393-8.393h193.049
		c5.036,0,8.393,3.357,8.393,8.393v8.393c0,3.357-2.518,6.715-5.036,7.554l-88.131,33.574c-0.839,0.839-2.518,0.839-4.197,0.839
		c-0.839,0-1.679,0-3.357,0c-13.43,0-25.18,7.554-30.216,20.144C101.499,426.584,98.141,428.263,94.784,428.263z M59.531,411.476
		h30.216c9.233-15.108,25.18-25.18,43.646-25.18c0.839,0,1.679,0,2.518,0l67.148-25.18H59.531c4.197,6.715,6.715,15.948,6.715,25.18
		C66.246,395.528,63.728,404.761,59.531,411.476z"/>
	<path d="M328.961,459.319c-1.679,0-2.518,0-3.357-0.839l-27.698-14.269c-1.679-0.839-3.357-2.518-4.197-5.036l-25.18-75.541
		c-0.839-3.357,0-6.715,2.518-8.393c2.518-2.518,5.875-3.357,8.393-1.679l92.328,33.574c4.197,1.679,5.875,5.036,5.036,9.233
		c-0.839,4.197-4.197,6.715-8.393,6.715c-16.787,0-30.216,11.751-32.734,28.538c0,2.518-0.839,3.357-0.839,5.036
		s0,3.357,0.839,5.875l0,0c0,1.679,0.839,3.357,1.679,5.036c0.839,3.357,0,6.715-2.518,9.233
		C333.158,458.479,330.64,459.319,328.961,459.319z M307.977,430.781l10.072,5.036c0-2.518,0-4.197,0.839-6.715
		c2.518-15.108,10.911-26.859,22.662-34.413l-52.039-19.305L307.977,430.781z"/>
	<path d="M469.131,428.263c-18.466,0-33.574-18.466-33.574-41.967c0-23.502,15.108-41.967,33.574-41.967
		s33.574,18.466,33.574,41.967C502.705,409.797,487.597,428.263,469.131,428.263z M469.131,361.115
		c-9.233,0-16.787,11.751-16.787,25.18s7.554,25.18,16.787,25.18c9.233,0,16.787-11.751,16.787-25.18
		S478.364,361.115,469.131,361.115z"/>
	<path d="M469.131,428.263H407.02c-3.357,0-6.715-1.679-7.554-5.036c-5.875-11.751-17.626-20.144-31.056-20.144
		c-0.839,0-2.518,0-3.357,0c-1.679,0-2.518,0-4.197-0.839l-88.131-33.574c-2.518-0.839-5.036-4.197-5.036-7.554v-8.393
		c0-5.036,3.357-8.393,8.393-8.393h193.049c5.036,0,8.393,3.357,8.393,8.393c0,5.036-3.357,8.393-8.393,8.393
		c-9.233,0-16.787,11.751-16.787,25.18s7.554,25.18,16.787,25.18c5.036,0,8.393,3.357,8.393,8.393S474.167,428.263,469.131,428.263z
		 M412.056,411.476h30.216c-4.197-6.715-6.715-15.948-6.715-25.18c0-9.233,2.518-18.466,6.715-25.18H298.745l67.148,25.18
		c0.839,0,1.679,0,2.518,0C386.036,386.296,402.823,396.368,412.056,411.476z"/>
	<path d="M116.607,33.771c0,5.036-3.357,8.393-8.393,8.393c-5.036,0-8.393-3.357-8.393-8.393s3.357-8.393,8.393-8.393
		C113.249,25.378,116.607,28.735,116.607,33.771"/>
	<path d="M443.951,159.673c0,5.036-3.357,8.393-8.393,8.393s-8.393-3.357-8.393-8.393s3.357-8.393,8.393-8.393
		S443.951,154.637,443.951,159.673"/>
	<path d="M24.279,210.033c0,5.036-3.357,8.393-8.393,8.393s-8.393-3.357-8.393-8.393c0-5.036,3.357-8.393,8.393-8.393
		S24.279,204.997,24.279,210.033"/>
	<path d="M252.581,361.115c-0.839,0-1.679,0-2.518,0c-23.502,0-35.252-14.269-36.092-15.108
		c-16.787-16.787-19.305-43.646-5.036-63.79l41.967-62.111l41.967,62.111c13.429,20.144,10.911,47.003-5.875,64.63
		C273.564,359.437,259.295,361.115,252.581,361.115z M250.902,250.322l-27.698,41.128c-9.233,13.429-7.554,31.895,3.357,42.807
		c0.839,0.839,8.393,9.233,23.502,9.233h0.839c0,0,12.59,0.839,22.662-9.233c10.911-10.911,12.59-29.377,3.357-42.807
		L250.902,250.322z"/>
</g>
</svg>