<?xml version="1.0" encoding="iso-8859-1"?>
<!-- Uploaded to: SVG Repo, www.svgrepo.com, Generator: SVG Repo Mixer Tools -->
<svg version="1.1" id="Layer_1" xmlns="http://www.w3.org/2000/svg" xmlns:xlink="http://www.w3.org/1999/xlink" 
	 viewBox="0 0 512 512" xml:space="preserve">
<g>
	<rect x="10.662" y="303.978" style="fill:#6E5B3F;" width="51.646" height="63.981"/>
	<rect x="126.289" y="303.978" style="fill:#6E5B3F;" width="97.726" height="63.981"/>
	<rect x="284.702" y="307.262" style="fill:#6E5B3F;" width="97.726" height="63.981"/>
	<rect x="446.409" y="307.262" style="fill:#6E5B3F;" width="51.646" height="63.981"/>
	<rect x="449.693" y="144.041" style="fill:#6E5B3F;" width="51.646" height="63.981"/>
	<rect x="284.702" y="147.324" style="fill:#6E5B3F;" width="97.726" height="63.981"/>
	<rect x="126.289" y="144.041" style="fill:#6E5B3F;" width="97.726" height="63.981"/>
	<rect x="10.662" y="144.041" style="fill:#6E5B3F;" width="51.646" height="63.981"/>
</g>
<g>
	<path style="fill:#A3875E;" d="M449.693,303.978v63.981v91.681h-63.981v-91.681v-63.981v-95.956v-63.981V84.345
		c0-17.667,14.329-31.985,31.996-31.985c8.839,0,16.835,3.582,22.614,9.372c5.789,5.789,9.372,13.786,9.372,22.614v59.695v63.981
		V303.978z"/>
	<path style="fill:#A3875E;" d="M287.985,303.978v63.981v91.681h-63.971v-91.681v-63.981v-95.956v-63.981V84.345
		c0-17.667,14.319-31.985,31.985-31.985c8.828,0,16.824,3.582,22.614,9.372c5.789,5.789,9.372,13.786,9.372,22.614v59.695v63.981
		V303.978z"/>
	<path style="fill:#A3875E;" d="M126.289,303.978v63.981v91.681H62.307v-91.681v-63.981v-95.956v-63.981V84.345
		c0-17.667,14.319-31.985,31.985-31.985c8.839,0,16.835,3.582,22.624,9.372c5.789,5.789,9.372,13.786,9.372,22.614v59.695v63.981
		C126.289,208.022,126.289,303.978,126.289,303.978z"/>
</g>
<path d="M62.307,218.684H10.662C4.773,218.684,0,213.909,0,208.022v-63.981c0-5.887,4.773-10.662,10.662-10.662h51.646
	c5.889,0,10.662,4.774,10.662,10.662s-4.773,10.662-10.662,10.662H21.324v42.658h40.984c5.889,0,10.662,4.774,10.662,10.662
	S68.196,218.684,62.307,218.684z"/>
<path d="M224.015,218.684h-97.726c-5.889,0-10.662-4.774-10.662-10.662s4.773-10.662,10.662-10.662h97.726
	c5.889,0,10.662,4.774,10.662,10.662S229.903,218.684,224.015,218.684z"/>
<path d="M224.015,154.702h-97.726c-5.889,0-10.662-4.774-10.662-10.662s4.773-10.662,10.662-10.662h97.726
	c5.889,0,10.662,4.774,10.662,10.662S229.903,154.702,224.015,154.702z"/>
<path d="M385.711,218.684h-97.726c-5.889,0-10.662-4.774-10.662-10.662s4.773-10.662,10.662-10.662h97.726
	c5.889,0,10.662,4.774,10.662,10.662S391.6,218.684,385.711,218.684z"/>
<path d="M385.711,154.702h-97.726c-5.889,0-10.662-4.774-10.662-10.662s4.773-10.662,10.662-10.662h97.726
	c5.889,0,10.662,4.774,10.662,10.662S391.6,154.702,385.711,154.702z"/>
<path d="M501.338,218.684h-51.646c-5.889,0-10.662-4.774-10.662-10.662s4.773-10.662,10.662-10.662h40.984v-42.658h-40.984
	c-5.889,0-10.662-4.774-10.662-10.662s4.773-10.662,10.662-10.662h51.646c5.889,0,10.662,4.774,10.662,10.662v63.981
	C512,213.909,507.227,218.684,501.338,218.684z"/>
<path d="M62.307,378.621H10.662C4.773,378.621,0,373.847,0,367.959v-63.981c0-5.887,4.773-10.662,10.662-10.662h51.646
	c5.889,0,10.662,4.774,10.662,10.662c0,5.887-4.773,10.662-10.662,10.662H21.324v42.658h40.984c5.889,0,10.662,4.774,10.662,10.662
	S68.196,378.621,62.307,378.621z"/>
<path d="M224.015,378.621h-97.726c-5.889,0-10.662-4.774-10.662-10.662s4.773-10.662,10.662-10.662h97.726
	c5.889,0,10.662,4.774,10.662,10.662S229.903,378.621,224.015,378.621z"/>
<path d="M224.015,314.64h-97.726c-5.889,0-10.662-4.774-10.662-10.662c0-5.887,4.773-10.662,10.662-10.662h97.726
	c5.889,0,10.662,4.774,10.662,10.662C234.676,309.865,229.903,314.64,224.015,314.64z"/>
<path d="M385.711,378.621h-97.726c-5.889,0-10.662-4.774-10.662-10.662s4.773-10.662,10.662-10.662h97.726
	c5.889,0,10.662,4.774,10.662,10.662S391.6,378.621,385.711,378.621z"/>
<path d="M385.711,314.64h-97.726c-5.889,0-10.662-4.774-10.662-10.662c0-5.887,4.773-10.662,10.662-10.662h97.726
	c5.889,0,10.662,4.774,10.662,10.662C396.373,309.865,391.6,314.64,385.711,314.64z"/>
<path d="M501.338,378.621h-51.646c-5.889,0-10.662-4.774-10.662-10.662s4.773-10.662,10.662-10.662h40.984V314.64h-40.984
	c-5.889,0-10.662-4.774-10.662-10.662c0-5.887,4.773-10.662,10.662-10.662h51.646c5.889,0,10.662,4.774,10.662,10.662v63.981
	C512,373.847,507.227,378.621,501.338,378.621z"/>
<path d="M441.525,73.66c-2.925,0-5.836-1.195-7.942-3.544c-0.259-0.289-0.527-0.571-0.801-0.845c-4.163-4.163-4.163-10.914,0-15.079
	c4.163-4.162,10.914-4.162,15.079,0c0.548,0.549,1.081,1.112,1.599,1.689c3.931,4.384,3.563,11.126-0.821,15.056
	C446.603,72.762,444.059,73.66,441.525,73.66z"/>
<path d="M449.693,470.302h-63.981c-5.888,0-10.662-4.774-10.662-10.662V84.345c0-22.701,17.751-41.408,40.411-42.588
	c5.884-0.325,10.895,4.212,11.202,10.092c0.307,5.881-4.212,10.896-10.092,11.202c-11.326,0.591-20.198,9.944-20.198,21.295v364.633
	h42.658V89.276c0-5.887,4.773-10.662,10.662-10.662s10.662,4.774,10.662,10.662V459.64
	C460.354,465.527,455.581,470.302,449.693,470.302z"/>
<path d="M287.985,470.302h-63.971c-5.888,0-10.662-4.774-10.662-10.662V84.345c0-23.516,19.132-42.647,42.647-42.647
	c11.387,0,22.094,4.437,30.153,12.495c8.057,8.057,12.495,18.766,12.495,30.153V459.64
	C298.647,465.527,293.874,470.302,287.985,470.302z M234.676,448.978h42.647V84.345c0-5.691-2.22-11.045-6.249-15.075
	c-4.03-4.029-9.384-6.249-15.075-6.249c-11.758,0-21.324,9.566-21.324,21.324L234.676,448.978L234.676,448.978z"/>
<path d="M126.289,470.302H62.307c-5.889,0-10.662-4.774-10.662-10.662V84.345c0-23.516,19.132-42.647,42.647-42.647
	c11.394,0,22.106,4.437,30.163,12.495s12.495,18.766,12.495,30.153V459.64C136.951,465.527,132.177,470.302,126.289,470.302z
	 M72.969,448.978h42.658V84.345c0-5.691-2.22-11.045-6.249-15.075c-4.03-4.03-9.388-6.249-15.085-6.249
	c-11.758,0-21.324,9.566-21.324,21.324C72.969,84.345,72.969,448.978,72.969,448.978z"/>
</svg>