<?xml version="1.0" encoding="utf-8"?>
<svg xmlns="http://www.w3.org/2000/svg">
<g id="weather_snow_overlay">
<rect x="0" y="80" width="4" height="4" fill="#ffffff" opacity="0.9"/>\n<rect x="25" y="130" width="4" height="4" fill="#ffffff" opacity="0.9"/>\n<rect x="10" y="180" width="4" height="4" fill="#ffffff" opacity="0.9"/>\n<rect x="-10" y="220" width="4" height="4" fill="#ffffff" opacity="0.9"/>\n<rect x="50" y="80" width="4" height="4" fill="#ffffff" opacity="0.9"/>\n<rect x="75" y="130" width="4" height="4" fill="#ffffff" opacity="0.9"/>\n<rect x="60" y="180" width="4" height="4" fill="#ffffff" opacity="0.9"/>\n<rect x="40" y="220" width="4" height="4" fill="#ffffff" opacity="0.9"/>\n<rect x="100" y="80" width="4" height="4" fill="#ffffff" opacity="0.9"/>\n<rect x="125" y="130" width="4" height="4" fill="#ffffff" opacity="0.9"/>\n<rect x="110" y="180" width="4" height="4" fill="#ffffff" opacity="0.9"/>\n<rect x="90" y="220" width="4" height="4" fill="#ffffff" opacity="0.9"/>\n<rect x="150" y="80" width="4" height="4" fill="#ffffff" opacity="0.9"/>\n<rect x="175" y="130" width="4" height="4" fill="#ffffff" opacity="0.9"/>\n<rect x="160" y="180" width="4" height="4" fill="#ffffff" opacity="0.9"/>\n<rect x="140" y="220" width="4" height="4" fill="#ffffff" opacity="0.9"/>\n<rect x="200" y="80" width="4" height="4" fill="#ffffff" opacity="0.9"/>\n<rect x="225" y="130" width="4" height="4" fill="#ffffff" opacity="0.9"/>\n<rect x="210" y="180" width="4" height="4" fill="#ffffff" opacity="0.9"/>\n<rect x="190" y="220" width="4" height="4" fill="#ffffff" opacity="0.9"/>\n<rect x="250" y="80" width="4" height="4" fill="#ffffff" opacity="0.9"/>\n<rect x="275" y="130" width="4" height="4" fill="#ffffff" opacity="0.9"/>\n<rect x="260" y="180" width="4" height="4" fill="#ffffff" opacity="0.9"/>\n<rect x="240" y="220" width="4" height="4" fill="#ffffff" opacity="0.9"/>\n<rect x="300" y="80" width="4" height="4" fill="#ffffff" opacity="0.9"/>\n<rect x="325" y="130" width="4" height="4" fill="#ffffff" opacity="0.9"/>\n<rect x="310" y="180" width="4" height="4" fill="#ffffff" opacity="0.9"/>\n<rect x="290" y="220" width="4" height="4" fill="#ffffff" opacity="0.9"/>\n<rect x="350" y="80" width="4" height="4" fill="#ffffff" opacity="0.9"/>\n<rect x="375" y="130" width="4" height="4" fill="#ffffff" opacity="0.9"/>\n<rect x="360" y="180" width="4" height="4" fill="#ffffff" opacity="0.9"/>\n<rect x="340" y="220" width="4" height="4" fill="#ffffff" opacity="0.9"/>\n<rect x="400" y="80" width="4" height="4" fill="#ffffff" opacity="0.9"/>\n<rect x="425" y="130" width="4" height="4" fill="#ffffff" opacity="0.9"/>\n<rect x="410" y="180" width="4" height="4" fill="#ffffff" opacity="0.9"/>\n<rect x="390" y="220" width="4" height="4" fill="#ffffff" opacity="0.9"/>\n<rect x="450" y="80" width="4" height="4" fill="#ffffff" opacity="0.9"/>\n<rect x="475" y="130" width="4" height="4" fill="#ffffff" opacity="0.9"/>\n<rect x="460" y="180" width="4" height="4" fill="#ffffff" opacity="0.9"/>\n<rect x="440" y="220" width="4" height="4" fill="#ffffff" opacity="0.9"/>\n<rect x="500" y="80" width="4" height="4" fill="#ffffff" opacity="0.9"/>\n<rect x="525" y="130" width="4" height="4" fill="#ffffff" opacity="0.9"/>\n<rect x="510" y="180" width="4" height="4" fill="#ffffff" opacity="0.9"/>\n<rect x="490" y="220" width="4" height="4" fill="#ffffff" opacity="0.9"/>\n<rect x="550" y="80" width="4" height="4" fill="#ffffff" opacity="0.9"/>\n<rect x="575" y="130" width="4" height="4" fill="#ffffff" opacity="0.9"/>\n<rect x="560" y="180" width="4" height="4" fill="#ffffff" opacity="0.9"/>\n<rect x="540" y="220" width="4" height="4" fill="#ffffff" opacity="0.9"/>\n<rect x="600" y="80" width="4" height="4" fill="#ffffff" opacity="0.9"/>\n<rect x="625" y="130" width="4" height="4" fill="#ffffff" opacity="0.9"/>\n<rect x="610" y="180" width="4" height="4" fill="#ffffff" opacity="0.9"/>\n<rect x="590" y="220" width="4" height="4" fill="#ffffff" opacity="0.9"/>\n<rect x="650" y="80" width="4" height="4" fill="#ffffff" opacity="0.9"/>\n<rect x="675" y="130" width="4" height="4" fill="#ffffff" opacity="0.9"/>\n<rect x="660" y="180" width="4" height="4" fill="#ffffff" opacity="0.9"/>\n<rect x="640" y="220" width="4" height="4" fill="#ffffff" opacity="0.9"/>\n<rect x="700" y="80" width="4" height="4" fill="#ffffff" opacity="0.9"/>\n<rect x="725" y="130" width="4" height="4" fill="#ffffff" opacity="0.9"/>\n<rect x="710" y="180" width="4" height="4" fill="#ffffff" opacity="0.9"/>\n<rect x="690" y="220" width="4" height="4" fill="#ffffff" opacity="0.9"/>\n<rect x="750" y="80" width="4" height="4" fill="#ffffff" opacity="0.9"/>\n<rect x="775" y="130" width="4" height="4" fill="#ffffff" opacity="0.9"/>\n<rect x="760" y="180" width="4" height="4" fill="#ffffff" opacity="0.9"/>\n<rect x="740" y="220" width="4" height="4" fill="#ffffff" opacity="0.9"/>
</g>
</svg>